<?xml version="1.0" standalone="no"?>
<!DOCTYPE svg PUBLIC "-//W3C//DTD SVG 20010904//EN"
 "http://www.w3.org/TR/2001/REC-SVG-20010904/DTD/svg10.dtd">
<svg version="1.0" xmlns="http://www.w3.org/2000/svg"
 width="360.000000pt" height="360.000000pt" viewBox="0 0 360.000000 360.000000"
 preserveAspectRatio="xMidYMid meet">
<metadata>
Created by potrace 1.14, written by Peter Selinger 2001-2017
</metadata>
<g transform="translate(0.000000,360.000000) scale(0.100000,-0.100000)"
fill="#000000" stroke="none">
<path d="M1658 3285 c-2 -2 -25 -6 -53 -9 -159 -21 -398 -116 -538 -212 -191
-133 -349 -306 -449 -494 -37 -69 -86 -185 -99 -235 -4 -16 -14 -55 -23 -85
-52 -194 -52 -461 0 -658 15 -54 29 -107 31 -120 3 -12 9 -25 14 -28 5 -3 9
-12 9 -20 0 -20 56 -137 102 -212 129 -211 331 -402 536 -506 136 -69 302
-124 432 -143 101 -14 378 -8 469 11 88 18 246 67 290 90 15 8 48 24 75 37 80
38 211 130 297 209 218 197 364 458 424 755 29 143 25 396 -9 550 -55 246
-176 473 -346 648 -88 91 -200 187 -218 187 -5 0 -15 7 -22 15 -7 8 -24 21
-39 28 -14 8 -51 27 -81 44 -67 35 -208 92 -275 109 -118 32 -205 42 -357 42
-92 0 -168 -1 -170 -3z m362 -168 c14 -2 45 -10 70 -17 25 -7 50 -13 57 -14 7
-1 16 -5 19 -9 4 -4 15 -7 24 -7 9 0 35 -9 58 -20 22 -11 45 -20 50 -20 18 0
192 -101 220 -127 7 -7 17 -13 22 -13 4 0 55 -46 112 -102 175 -173 273 -345
339 -598 19 -72 22 -112 22 -260 0 -166 -3 -194 -38 -340 -28 -118 -129 -315
-218 -425 -84 -104 -214 -219 -312 -278 -102 -61 -304 -141 -382 -152 -16 -3
-39 -7 -53 -11 -38 -9 -361 -11 -395 -2 -16 4 -67 17 -112 28 -45 10 -101 28
-125 38 -24 11 -54 23 -67 27 -82 25 -308 188 -390 282 -104 117 -199 271
-243 391 -4 12 -12 32 -17 45 -40 94 -59 256 -54 437 5 181 6 190 17 190 5 0
7 3 4 6 -15 15 78 277 122 344 9 14 38 59 65 100 60 93 220 253 311 312 84 55
205 118 225 118 8 0 19 4 24 9 19 17 238 76 253 67 4 -2 16 0 27 4 19 8 313 5
365 -3z"/>
<path d="M1777 2384 c-1 -1 -23 -4 -49 -7 -58 -7 -169 -50 -226 -88 -24 -16
-47 -29 -53 -29 -5 0 -9 -4 -9 -10 0 -5 -5 -10 -10 -10 -6 0 -21 -9 -33 -21
-71 -68 -76 -70 -201 -70 -67 0 -124 5 -137 11 -32 18 -69 4 -69 -24 0 -31 21
-38 74 -26 50 11 215 10 222 -2 3 -4 0 -8 -7 -8 -6 0 -26 -16 -43 -36 l-31
-36 -130 2 c-71 1 -148 3 -170 4 -34 1 -40 -2 -43 -21 -4 -26 24 -38 59 -25
13 5 83 8 154 7 164 -2 168 -3 159 -16 -3 -6 34 -50 88 -102 98 -95 202 -164
311 -207 53 -21 71 -25 119 -29 14 -1 17 -12 17 -63 -1 -132 1 -152 12 -141 6
6 9 47 7 106 l-3 95 60 1 c78 1 94 4 180 37 11 4 22 8 25 9 20 7 46 19 50 24
3 3 32 20 65 36 33 17 80 50 105 74 25 24 56 47 70 50 32 9 194 6 242 -4 55
-11 90 0 86 27 -4 29 -49 41 -91 24 -27 -11 -109 -13 -212 -7 -18 1 -18 3 -4
11 9 5 32 25 50 43 l34 34 140 -4 c77 -2 152 -4 167 -5 15 0 35 5 44 13 35 29
-7 36 -201 31 -134 -3 -185 -2 -185 7 0 6 6 11 13 11 6 0 -5 15 -25 34 -20 19
-34 37 -31 40 4 3 -1 6 -11 6 -9 0 -14 5 -11 10 3 6 3 10 -2 10 -4 0 -21 12
-38 26 -104 91 -246 169 -351 194 -44 10 -170 20 -177 14z m13 -129 c7 -8 16
-13 20 -10 5 3 15 -2 24 -10 13 -14 16 -13 27 7 6 13 13 25 15 27 1 1 13 -6
25 -18 13 -12 29 -21 36 -21 7 0 13 -5 13 -11 0 -6 6 -9 13 -6 7 3 21 -1 32
-9 10 -8 29 -14 42 -14 31 0 29 -8 -9 -47 -18 -18 -26 -33 -19 -33 7 0 18 -6
25 -13 11 -10 10 -15 -2 -27 -10 -9 -12 -15 -4 -18 6 -2 14 -2 16 0 3 2 12 -6
20 -17 10 -14 11 -22 3 -27 -8 -5 -7 -11 2 -21 10 -13 9 -17 -6 -26 -16 -9
-16 -12 -3 -21 8 -5 27 -10 42 -10 15 0 29 -4 32 -9 3 -4 17 -6 31 -4 13 3 22
9 19 14 -3 5 1 9 10 9 9 0 13 8 11 25 -1 14 1 25 5 25 11 0 1 113 -10 128 -2
1 -3 7 -4 12 0 6 -8 15 -16 20 -8 5 -11 10 -7 10 5 0 2 7 -5 15 -44 48 -45 52
-20 52 9 0 40 -17 69 -38 51 -38 163 -147 163 -158 0 -3 -20 -5 -44 -5 -41 2
-47 -1 -72 -37 -15 -21 -30 -39 -34 -39 -4 0 -10 -8 -13 -19 -6 -25 -26 -27
-237 -26 -142 1 -190 4 -207 15 -13 8 -23 17 -23 20 0 3 26 3 57 1 46 -2 59 0
70 15 12 16 13 15 13 -10 0 -24 3 -26 23 -21 25 8 49 34 42 46 -3 4 0 11 6 15
8 4 9 3 5 -4 -4 -7 -3 -12 3 -12 16 0 17 63 2 91 -15 27 -71 70 -100 77 -9 2
-52 5 -95 7 -44 2 -84 9 -90 16 -8 9 -7 10 3 4 10 -6 13 -4 9 6 -3 8 3 30 13
49 11 19 19 28 19 20 0 -9 6 -7 18 8 20 26 26 27 42 7z m-293 -37 c-24 -57
-33 -68 -58 -68 -15 0 -29 7 -33 15 -3 8 0 15 7 15 7 0 24 11 37 24 26 26 56
34 47 14z m-127 -108 c0 -25 -46 -80 -67 -80 -31 0 -36 14 -13 35 11 10 18 25
15 34 -4 12 4 17 30 18 19 2 35 -2 35 -7z m86 -9 c-14 -15 -16 -32 -12 -97 4
-68 16 -112 51 -198 7 -16 6 -17 -14 -7 -24 13 -73 56 -134 116 -22 22 -37 33
-33 25 4 -8 -1 -6 -11 5 -10 11 -26 27 -35 35 -19 16 -23 15 95 23 9 1 17 7
17 13 0 6 7 17 15 24 8 7 13 16 10 20 -3 5 -1 11 5 15 6 4 8 11 5 16 -4 5 -1
10 4 10 26 3 30 4 37 12 16 16 16 6 0 -12z m264 9 c0 -5 -3 -10 -7 -10 -14 0
-33 -53 -33 -88 0 -19 9 -50 21 -69 33 -53 67 -65 190 -67 105 -1 106 -1 98
-23 -6 -16 -2 -29 13 -48 11 -14 18 -29 14 -32 -3 -4 -6 -1 -6 6 0 7 -4 10 -9
7 -5 -3 -14 1 -21 9 -7 8 -26 15 -42 15 -27 0 -30 -3 -26 -25 7 -32 -1 -32
-28 3 l-23 27 4 -56 c4 -73 -11 -99 -20 -36 -7 45 -19 60 -27 35 -3 -9 -10 -7
-23 6 -18 17 -19 17 -30 -4 l-12 -22 -7 23 c-4 14 -9 19 -12 12 -4 -9 -11 -10
-25 -3 -14 8 -19 7 -19 -2 0 -9 -3 -9 -12 1 -10 11 -10 14 0 18 23 9 12 25
-12 19 -14 -3 -28 -1 -32 6 -4 6 -3 8 4 5 7 -5 7 3 0 27 -7 22 -16 33 -27 31
-27 -4 -33 6 -16 25 11 12 13 20 5 25 -8 5 -8 10 0 20 9 10 4 15 -19 20 -17 3
-31 14 -34 26 -3 10 -1 17 4 13 5 -3 9 0 9 5 0 6 6 11 14 11 8 0 18 5 22 12 4
6 3 8 -3 5 -6 -4 -17 0 -24 9 -7 8 -8 14 -3 13 5 -1 23 -1 39 0 23 1 27 3 15
11 -8 5 -11 10 -6 10 6 0 1 6 -9 14 -11 8 -24 12 -29 9 -5 -4 -7 -2 -3 3 7 13
147 17 147 4z m148 -9 c12 -6 22 -19 22 -28 0 -15 -1 -15 -18 0 -20 19 -111
20 -125 2 -5 -6 -6 -2 -3 8 3 10 6 23 6 27 0 12 92 5 118 -9z m99 -81 c-2 -23
-10 -17 -12 10 -1 10 2 17 6 14 4 -2 7 -13 6 -24z m-237 -1 c0 -5 -4 -9 -8 -9
-5 0 -9 7 -9 15 0 8 4 12 9 9 4 -3 8 -9 8 -15z m640 -27 c0 -4 -8 -19 -17 -32
-10 -14 -16 -32 -15 -40 2 -14 -20 -18 -60 -11 -16 2 -7 31 12 41 11 6 20 17
20 25 0 12 17 21 48 24 6 0 12 -2 12 -7z m-120 -131 c-1 -9 -76 -61 -90 -61
-9 0 -9 5 1 17 8 9 9 14 2 10 -8 -5 -8 -1 0 18 7 13 19 26 27 28 20 4 60 -4
60 -12z m-424 -141 c0 -11 -3 -20 -7 -20 -4 0 -9 9 -12 20 -3 12 0 20 7 20 6
0 12 -9 12 -20z"/>
<path d="M1677 1613 c-3 -4 -4 -59 -4 -121 1 -145 1 -146 138 -147 122 -1 136
7 139 80 4 110 0 195 -10 195 -6 0 -10 -45 -10 -114 0 -85 -4 -118 -14 -128
-10 -11 -39 -14 -110 -13 -53 1 -99 5 -104 9 -4 4 -7 59 -7 121 -1 106 -6 139
-18 118z"/>
<path d="M1732 1283 c-46 -22 -62 -54 -63 -125 -1 -72 2 -88 18 -105 6 -7 13
-17 15 -23 9 -29 171 -33 214 -6 32 21 43 52 44 118 1 80 -9 108 -48 134 -35
23 -139 27 -180 7z m155 -18 c13 -3 30 -16 38 -29 33 -50 17 -184 -24 -202 -9
-4 -51 -8 -93 -9 -71 -1 -78 1 -89 22 -7 13 -15 23 -19 23 -12 0 -12 138 0
159 6 12 21 26 35 33 23 13 107 14 152 3z"/>
</g>
</svg>
